<svg xmlns="http://www.w3.org/2000/svg" version="1.1" xmlns:xlink="http://www.w3.org/1999/xlink" xmlns:svgjs="http://svgjs.com/svgjs" width="1440" height="560" preserveAspectRatio="none" viewBox="0 0 1440 560"><g mask="url(&quot;#SvgjsMask1256&quot;)" fill="none"><rect width="1440" height="560" x="0" y="0" fill="rgba(241, 241, 241, 1)"></rect><use xlink:href="#SvgjsG1260" transform="translate(0, 0)" fill="rgba(129, 128, 128, 1)"></use><use xlink:href="#SvgjsG1260" transform="translate(0, 527)" fill="rgba(129, 128, 128, 1)"></use><use xlink:href="#SvgjsG1260" transform="translate(527, 0)" fill="rgba(129, 128, 128, 1)"></use><use xlink:href="#SvgjsG1260" transform="translate(527, 527)" fill="rgba(129, 128, 128, 1)"></use><use xlink:href="#SvgjsG1260" transform="translate(1054, 0)" fill="rgba(129, 128, 128, 1)"></use><use xlink:href="#SvgjsG1260" transform="translate(1054, 527)" fill="rgba(129, 128, 128, 1)"></use></g><defs><mask id="SvgjsMask1256"><rect width="1440" height="560" fill="#ffffff"></rect></mask><g id="SvgjsG1257"><path d="M7.58 15.48C3.33 15.4-0.07 11.88 0.01 7.63 0.08 3.37 3.6-0.03 7.85 0.05S15.51 3.64 15.43 7.9c-0.07 4.26-3.6 7.65-7.85 7.58z m0.04-1.91c3.2 0.06 5.85-2.5 5.91-5.71 0.06-3.2-2.51-5.85-5.71-5.91-3.2-0.06-5.85 2.51-5.91 5.71-0.06 3.21 2.5 5.85 5.71 5.91z"></path><path d="M7.74 8.78a0.57 0.57 0 0 1-0.55-0.05 0.58 0.58 0 0 1-0.26-0.4L7 3.84a0.58 0.58 0 0 1 1.17 0.02l-0.07 3.48 3-1.35a0.58 0.58 0 0 1 0.77 0.29c0.13 0.29 0 0.64-0.29 0.77l-3.84 1.73z"></path></g><g id="SvgjsG1258"><path d="M2.51 8.54L0 8.5 0.03 7.17l2.51 0.04-0.03 1.33zM3.72 4.5L1.98 2.7l0.95-0.92 1.74 1.8-0.95 0.92z m-0.12 6.82l0.92 0.95-1.81 1.74-0.91-0.95 1.8-1.74z m5.15-8.8l-1.33-0.02L7.46-0.01l1.33 0.02-0.04 2.51z m-1.52 10.93l1.33 0.02-0.05 2.51-1.33-0.02 0.05-2.51zM12.4 4.65l-0.94-0.95 1.83-1.74 0.91 0.95-1.8 1.74z m-0.12 6.79l1.74 1.83-0.95 0.92-1.74-1.8 0.96-0.95z m3.72-3.99l-0.03 1.33-2.5-0.05L13.49 7.4l2.51 0.05z"></path><path d="M3.7 7.91a4.18 4.18 0 1 0 8.37 0.15 4.18 4.18 0 1 0-8.37-0.15"></path></g><g id="SvgjsG1259"><path d="M12.79 12.44c-3.67-0.06-6.59-3.09-6.52-6.75 0.04-2.1 1.05-3.96 2.59-5.15-3.98 0.08-7.21 3.29-7.28 7.3-0.07 4.11 3.2 7.49 7.3 7.57 2.66 0.05 5.02-1.31 6.37-3.39a6.6 6.6 0 0 1-2.46 0.42z"></path></g><g id="SvgjsG1260"><use xlink:href="#SvgjsG1257" transform="translate(0, 0) scale(1.7)" fill="rgba(129, 128, 128, 1)"></use><use xlink:href="#SvgjsG1258" transform="translate(0, 52.699999999999996) scale(1.7)" fill="rgba(129, 128, 128, 1)"></use><use xlink:href="#SvgjsG1259" transform="translate(0, 105.39999999999999) scale(1.7)" fill="rgba(129, 128, 128, 1)"></use><use xlink:href="#SvgjsG1257" transform="translate(0, 158.1) scale(1.7)" fill="rgba(129, 128, 128, 1)"></use><use xlink:href="#SvgjsG1258" transform="translate(0, 210.79999999999998) scale(1.7)" fill="rgba(129, 128, 128, 1)"></use><use xlink:href="#SvgjsG1259" transform="translate(0, 263.5) scale(1.7)" fill="rgba(129, 128, 128, 1)"></use><use xlink:href="#SvgjsG1257" transform="translate(0, 316.2) scale(1.7)" fill="rgba(129, 128, 128, 1)"></use><use xlink:href="#SvgjsG1258" transform="translate(0, 368.9) scale(1.7)" fill="rgba(129, 128, 128, 1)"></use><use xlink:href="#SvgjsG1259" transform="translate(0, 421.59999999999997) scale(1.7)" fill="rgba(129, 128, 128, 1)"></use><use xlink:href="#SvgjsG1257" transform="translate(0, 474.29999999999995) scale(1.7)" fill="rgba(129, 128, 128, 1)"></use><use xlink:href="#SvgjsG1258" transform="translate(52.699999999999996, 0) scale(1.7)" fill="rgba(129, 128, 128, 1)"></use><use xlink:href="#SvgjsG1259" transform="translate(52.699999999999996, 52.699999999999996) scale(1.7)" fill="rgba(129, 128, 128, 1)"></use><use xlink:href="#SvgjsG1257" transform="translate(52.699999999999996, 105.39999999999999) scale(1.7)" fill="rgba(129, 128, 128, 1)"></use><use xlink:href="#SvgjsG1258" transform="translate(52.699999999999996, 158.1) scale(1.7)" fill="rgba(129, 128, 128, 1)"></use><use xlink:href="#SvgjsG1259" transform="translate(52.699999999999996, 210.79999999999998) scale(1.7)" fill="rgba(129, 128, 128, 1)"></use><use xlink:href="#SvgjsG1257" transform="translate(52.699999999999996, 263.5) scale(1.7)" fill="rgba(129, 128, 128, 1)"></use><use xlink:href="#SvgjsG1258" transform="translate(52.699999999999996, 316.2) scale(1.7)" fill="rgba(129, 128, 128, 1)"></use><use xlink:href="#SvgjsG1259" transform="translate(52.699999999999996, 368.9) scale(1.7)" fill="rgba(129, 128, 128, 1)"></use><use xlink:href="#SvgjsG1257" transform="translate(52.699999999999996, 421.59999999999997) scale(1.7)" fill="rgba(129, 128, 128, 1)"></use><use xlink:href="#SvgjsG1258" transform="translate(52.699999999999996, 474.29999999999995) scale(1.7)" fill="rgba(129, 128, 128, 1)"></use><use xlink:href="#SvgjsG1259" transform="translate(105.39999999999999, 0) scale(1.7)" fill="rgba(129, 128, 128, 1)"></use><use xlink:href="#SvgjsG1257" transform="translate(105.39999999999999, 52.699999999999996) scale(1.7)" fill="rgba(129, 128, 128, 1)"></use><use xlink:href="#SvgjsG1258" transform="translate(105.39999999999999, 105.39999999999999) scale(1.7)" fill="rgba(129, 128, 128, 1)"></use><use xlink:href="#SvgjsG1259" transform="translate(105.39999999999999, 158.1) scale(1.7)" fill="rgba(129, 128, 128, 1)"></use><use xlink:href="#SvgjsG1257" transform="translate(105.39999999999999, 210.79999999999998) scale(1.7)" fill="rgba(129, 128, 128, 1)"></use><use xlink:href="#SvgjsG1258" transform="translate(105.39999999999999, 263.5) scale(1.7)" fill="rgba(129, 128, 128, 1)"></use><use xlink:href="#SvgjsG1259" transform="translate(105.39999999999999, 316.2) scale(1.7)" fill="rgba(129, 128, 128, 1)"></use><use xlink:href="#SvgjsG1257" transform="translate(105.39999999999999, 368.9) scale(1.7)" fill="rgba(129, 128, 128, 1)"></use><use xlink:href="#SvgjsG1258" transform="translate(105.39999999999999, 421.59999999999997) scale(1.7)" fill="rgba(129, 128, 128, 1)"></use><use xlink:href="#SvgjsG1259" transform="translate(105.39999999999999, 474.29999999999995) scale(1.7)" fill="rgba(129, 128, 128, 1)"></use><use xlink:href="#SvgjsG1257" transform="translate(158.1, 0) scale(1.7)" fill="rgba(129, 128, 128, 1)"></use><use xlink:href="#SvgjsG1258" transform="translate(158.1, 52.699999999999996) scale(1.7)" fill="rgba(129, 128, 128, 1)"></use><use xlink:href="#SvgjsG1259" transform="translate(158.1, 105.39999999999999) scale(1.7)" fill="rgba(129, 128, 128, 1)"></use><use xlink:href="#SvgjsG1257" transform="translate(158.1, 158.1) scale(1.7)" fill="rgba(129, 128, 128, 1)"></use><use xlink:href="#SvgjsG1258" transform="translate(158.1, 210.79999999999998) scale(1.7)" fill="rgba(129, 128, 128, 1)"></use><use xlink:href="#SvgjsG1259" transform="translate(158.1, 263.5) scale(1.7)" fill="rgba(129, 128, 128, 1)"></use><use xlink:href="#SvgjsG1257" transform="translate(158.1, 316.2) scale(1.7)" fill="rgba(129, 128, 128, 1)"></use><use xlink:href="#SvgjsG1258" transform="translate(158.1, 368.9) scale(1.7)" fill="rgba(129, 128, 128, 1)"></use><use xlink:href="#SvgjsG1259" transform="translate(158.1, 421.59999999999997) scale(1.7)" fill="rgba(129, 128, 128, 1)"></use><use xlink:href="#SvgjsG1257" transform="translate(158.1, 474.29999999999995) scale(1.7)" fill="rgba(129, 128, 128, 1)"></use><use xlink:href="#SvgjsG1258" transform="translate(210.79999999999998, 0) scale(1.7)" fill="rgba(129, 128, 128, 1)"></use><use xlink:href="#SvgjsG1259" transform="translate(210.79999999999998, 52.699999999999996) scale(1.7)" fill="rgba(129, 128, 128, 1)"></use><use xlink:href="#SvgjsG1257" transform="translate(210.79999999999998, 105.39999999999999) scale(1.7)" fill="rgba(129, 128, 128, 1)"></use><use xlink:href="#SvgjsG1258" transform="translate(210.79999999999998, 158.1) scale(1.7)" fill="rgba(129, 128, 128, 1)"></use><use xlink:href="#SvgjsG1259" transform="translate(210.79999999999998, 210.79999999999998) scale(1.7)" fill="rgba(129, 128, 128, 1)"></use><use xlink:href="#SvgjsG1257" transform="translate(210.79999999999998, 263.5) scale(1.7)" fill="rgba(129, 128, 128, 1)"></use><use xlink:href="#SvgjsG1258" transform="translate(210.79999999999998, 316.2) scale(1.7)" fill="rgba(129, 128, 128, 1)"></use><use xlink:href="#SvgjsG1259" transform="translate(210.79999999999998, 368.9) scale(1.7)" fill="rgba(129, 128, 128, 1)"></use><use xlink:href="#SvgjsG1257" transform="translate(210.79999999999998, 421.59999999999997) scale(1.7)" fill="rgba(129, 128, 128, 1)"></use><use xlink:href="#SvgjsG1258" transform="translate(210.79999999999998, 474.29999999999995) scale(1.7)" fill="rgba(129, 128, 128, 1)"></use><use xlink:href="#SvgjsG1259" transform="translate(263.5, 0) scale(1.7)" fill="rgba(129, 128, 128, 1)"></use><use xlink:href="#SvgjsG1257" transform="translate(263.5, 52.699999999999996) scale(1.7)" fill="rgba(129, 128, 128, 1)"></use><use xlink:href="#SvgjsG1258" transform="translate(263.5, 105.39999999999999) scale(1.7)" fill="rgba(129, 128, 128, 1)"></use><use xlink:href="#SvgjsG1259" transform="translate(263.5, 158.1) scale(1.7)" fill="rgba(129, 128, 128, 1)"></use><use xlink:href="#SvgjsG1257" transform="translate(263.5, 210.79999999999998) scale(1.7)" fill="rgba(129, 128, 128, 1)"></use><use xlink:href="#SvgjsG1258" transform="translate(263.5, 263.5) scale(1.7)" fill="rgba(129, 128, 128, 1)"></use><use xlink:href="#SvgjsG1259" transform="translate(263.5, 316.2) scale(1.7)" fill="rgba(129, 128, 128, 1)"></use><use xlink:href="#SvgjsG1257" transform="translate(263.5, 368.9) scale(1.7)" fill="rgba(129, 128, 128, 1)"></use><use xlink:href="#SvgjsG1258" transform="translate(263.5, 421.59999999999997) scale(1.7)" fill="rgba(129, 128, 128, 1)"></use><use xlink:href="#SvgjsG1259" transform="translate(263.5, 474.29999999999995) scale(1.7)" fill="rgba(129, 128, 128, 1)"></use><use xlink:href="#SvgjsG1257" transform="translate(316.2, 0) scale(1.7)" fill="rgba(129, 128, 128, 1)"></use><use xlink:href="#SvgjsG1258" transform="translate(316.2, 52.699999999999996) scale(1.7)" fill="rgba(129, 128, 128, 1)"></use><use xlink:href="#SvgjsG1259" transform="translate(316.2, 105.39999999999999) scale(1.7)" fill="rgba(129, 128, 128, 1)"></use><use xlink:href="#SvgjsG1257" transform="translate(316.2, 158.1) scale(1.7)" fill="rgba(129, 128, 128, 1)"></use><use xlink:href="#SvgjsG1258" transform="translate(316.2, 210.79999999999998) scale(1.7)" fill="rgba(129, 128, 128, 1)"></use><use xlink:href="#SvgjsG1259" transform="translate(316.2, 263.5) scale(1.7)" fill="rgba(129, 128, 128, 1)"></use><use xlink:href="#SvgjsG1257" transform="translate(316.2, 316.2) scale(1.7)" fill="rgba(129, 128, 128, 1)"></use><use xlink:href="#SvgjsG1258" transform="translate(316.2, 368.9) scale(1.7)" fill="rgba(129, 128, 128, 1)"></use><use xlink:href="#SvgjsG1259" transform="translate(316.2, 421.59999999999997) scale(1.7)" fill="rgba(129, 128, 128, 1)"></use><use xlink:href="#SvgjsG1257" transform="translate(316.2, 474.29999999999995) scale(1.7)" fill="rgba(129, 128, 128, 1)"></use><use xlink:href="#SvgjsG1258" transform="translate(368.9, 0) scale(1.7)" fill="rgba(129, 128, 128, 1)"></use><use xlink:href="#SvgjsG1259" transform="translate(368.9, 52.699999999999996) scale(1.7)" fill="rgba(129, 128, 128, 1)"></use><use xlink:href="#SvgjsG1257" transform="translate(368.9, 105.39999999999999) scale(1.7)" fill="rgba(129, 128, 128, 1)"></use><use xlink:href="#SvgjsG1258" transform="translate(368.9, 158.1) scale(1.7)" fill="rgba(129, 128, 128, 1)"></use><use xlink:href="#SvgjsG1259" transform="translate(368.9, 210.79999999999998) scale(1.7)" fill="rgba(129, 128, 128, 1)"></use><use xlink:href="#SvgjsG1257" transform="translate(368.9, 263.5) scale(1.7)" fill="rgba(129, 128, 128, 1)"></use><use xlink:href="#SvgjsG1258" transform="translate(368.9, 316.2) scale(1.7)" fill="rgba(129, 128, 128, 1)"></use><use xlink:href="#SvgjsG1259" transform="translate(368.9, 368.9) scale(1.7)" fill="rgba(129, 128, 128, 1)"></use><use xlink:href="#SvgjsG1257" transform="translate(368.9, 421.59999999999997) scale(1.7)" fill="rgba(129, 128, 128, 1)"></use><use xlink:href="#SvgjsG1258" transform="translate(368.9, 474.29999999999995) scale(1.7)" fill="rgba(129, 128, 128, 1)"></use><use xlink:href="#SvgjsG1259" transform="translate(421.59999999999997, 0) scale(1.7)" fill="rgba(129, 128, 128, 1)"></use><use xlink:href="#SvgjsG1257" transform="translate(421.59999999999997, 52.699999999999996) scale(1.7)" fill="rgba(129, 128, 128, 1)"></use><use xlink:href="#SvgjsG1258" transform="translate(421.59999999999997, 105.39999999999999) scale(1.7)" fill="rgba(129, 128, 128, 1)"></use><use xlink:href="#SvgjsG1259" transform="translate(421.59999999999997, 158.1) scale(1.7)" fill="rgba(129, 128, 128, 1)"></use><use xlink:href="#SvgjsG1257" transform="translate(421.59999999999997, 210.79999999999998) scale(1.7)" fill="rgba(129, 128, 128, 1)"></use><use xlink:href="#SvgjsG1258" transform="translate(421.59999999999997, 263.5) scale(1.7)" fill="rgba(129, 128, 128, 1)"></use><use xlink:href="#SvgjsG1259" transform="translate(421.59999999999997, 316.2) scale(1.7)" fill="rgba(129, 128, 128, 1)"></use><use xlink:href="#SvgjsG1257" transform="translate(421.59999999999997, 368.9) scale(1.7)" fill="rgba(129, 128, 128, 1)"></use><use xlink:href="#SvgjsG1258" transform="translate(421.59999999999997, 421.59999999999997) scale(1.7)" fill="rgba(129, 128, 128, 1)"></use><use xlink:href="#SvgjsG1259" transform="translate(421.59999999999997, 474.29999999999995) scale(1.7)" fill="rgba(129, 128, 128, 1)"></use><use xlink:href="#SvgjsG1257" transform="translate(474.29999999999995, 0) scale(1.7)" fill="rgba(129, 128, 128, 1)"></use><use xlink:href="#SvgjsG1258" transform="translate(474.29999999999995, 52.699999999999996) scale(1.7)" fill="rgba(129, 128, 128, 1)"></use><use xlink:href="#SvgjsG1259" transform="translate(474.29999999999995, 105.39999999999999) scale(1.7)" fill="rgba(129, 128, 128, 1)"></use><use xlink:href="#SvgjsG1257" transform="translate(474.29999999999995, 158.1) scale(1.7)" fill="rgba(129, 128, 128, 1)"></use><use xlink:href="#SvgjsG1258" transform="translate(474.29999999999995, 210.79999999999998) scale(1.7)" fill="rgba(129, 128, 128, 1)"></use><use xlink:href="#SvgjsG1259" transform="translate(474.29999999999995, 263.5) scale(1.7)" fill="rgba(129, 128, 128, 1)"></use><use xlink:href="#SvgjsG1257" transform="translate(474.29999999999995, 316.2) scale(1.7)" fill="rgba(129, 128, 128, 1)"></use><use xlink:href="#SvgjsG1258" transform="translate(474.29999999999995, 368.9) scale(1.7)" fill="rgba(129, 128, 128, 1)"></use><use xlink:href="#SvgjsG1259" transform="translate(474.29999999999995, 421.59999999999997) scale(1.7)" fill="rgba(129, 128, 128, 1)"></use><use xlink:href="#SvgjsG1257" transform="translate(474.29999999999995, 474.29999999999995) scale(1.7)" fill="rgba(129, 128, 128, 1)"></use></g></defs></svg>